<svg xmlns="http://www.w3.org/2000/svg" viewBox="0 0 64 64" fill="none">
  <!-- 秤的底座 -->
  <rect x="8" y="40" width="48" height="16" rx="2" fill="#3b82f6" stroke="#1e40af" stroke-width="2"/>
  <rect x="12" y="44" width="40" height="8" rx="1" fill="#1e40af"/>

  <!-- 秤的支柱 -->
  <rect x="28" y="28" width="8" height="14" fill="#64748b"/>

  <!-- 秤盘 -->
  <ellipse cx="32" cy="24" rx="18" ry="8" fill="#e2e8f0" stroke="#64748b" stroke-width="2"/>
  <ellipse cx="32" cy="22" rx="16" ry="6" fill="#f1f5f9"/>

  <!-- 显示屏 -->
  <rect x="16" y="8" width="32" height="14" rx="2" fill="#0f172a" stroke="#3b82f6" stroke-width="2"/>

  <!-- 条码 -->
  <g fill="#10b981">
    <rect x="18" y="11" width="2" height="8"/>
    <rect x="21" y="11" width="1" height="8"/>
    <rect x="23" y="11" width="3" height="8"/>
    <rect x="27" y="11" width="1" height="8"/>
    <rect x="29" y="11" width="2" height="8"/>
    <rect x="32" y="11" width="1" height="8"/>
    <rect x="34" y="11" width="3" height="8"/>
    <rect x="38" y="11" width="1" height="8"/>
    <rect x="40" y="11" width="2" height="8"/>
    <rect x="43" y="11" width="1" height="8"/>
  </g>

  <!-- 数字显示 -->
  <text x="32" y="34" font-family="Arial, sans-serif" font-size="8" fill="#1e40af" text-anchor="middle" font-weight="bold">2.5kg</text>
</svg>